<svg width="1437" height="494" viewBox="0 0 1437 494" fill="none" xmlns="http://www.w3.org/2000/svg">
<path fill-rule="evenodd" clip-rule="evenodd" d="M84.4925 70.9319C37.8286 151.756 65.5211 255.106 146.345 301.77C227.17 348.434 330.519 320.741 377.183 239.917L84.4925 70.9319Z" fill="#E8AC3B"/>
<path fill-rule="evenodd" clip-rule="evenodd" d="M821.142 310.327C906.836 347.294 1006.27 307.792 1043.24 222.098C1080.21 136.403 1040.7 36.9667 955.01 -4.6423e-05L821.142 310.327Z" fill="#63D6D7"/>
<path fill-rule="evenodd" clip-rule="evenodd" d="M695.959 324.927C649.296 244.103 545.946 216.41 465.122 263.074C384.297 309.738 356.605 413.088 403.269 493.912L695.959 324.927Z" fill="#ED864F"/>
<path fill-rule="evenodd" clip-rule="evenodd" d="M1352.5 493.912C1399.16 413.088 1371.47 309.738 1290.64 263.074C1209.82 216.41 1106.47 244.103 1059.81 324.927L1352.5 493.912Z" fill="#2256A2"/>
</svg>
