<svg width="1574" height="592" viewBox="0 0 1574 592" fill="none" xmlns="http://www.w3.org/2000/svg">
<path fill-rule="evenodd" clip-rule="evenodd" d="M27.25 85C-28.6688 181.854 4.51589 305.701 101.37 361.62C198.224 417.539 322.071 384.354 377.99 287.5L27.25 85Z" fill="#E8AC3B"/>
<path fill-rule="evenodd" clip-rule="evenodd" d="M910 371.875C1012.69 416.173 1131.85 368.837 1176.15 266.147C1220.45 163.456 1173.11 44.2984 1070.42 -1.64509e-05L910 371.875Z" fill="#63D6D7"/>
<path fill-rule="evenodd" clip-rule="evenodd" d="M759.99 389.37C704.071 292.516 580.224 259.331 483.37 315.25C386.516 371.169 353.331 495.016 409.25 591.87L759.99 389.37Z" fill="#ED864F"/>
<path fill-rule="evenodd" clip-rule="evenodd" d="M1546.74 591.87C1602.66 495.016 1569.47 371.169 1472.62 315.25C1375.77 259.331 1251.92 292.516 1196 389.37L1546.74 591.87Z" fill="#2256A2"/>
<path d="M1421 2.90479C1375.73 2.90479 1338.9 39.7329 1338.9 84.9999C1338.9 130.267 1375.73 167.095 1421 167.095C1466.27 167.095 1503.09 130.267 1503.09 84.9999C1503.09 39.7329 1466.27 2.90479 1421 2.90479ZM1421 4.05512C1465.44 4.05512 1501.63 40.0557 1501.94 84.4257H1476.2C1475.89 54.2464 1451.25 29.7897 1421 29.7897C1390.75 29.7897 1366.11 54.2464 1365.8 84.4257H1340.06C1340.37 40.0557 1376.56 4.05512 1421 4.05512ZM1475.06 84.9999C1475.06 114.81 1450.81 139.062 1421 139.062C1391.19 139.062 1366.94 114.81 1366.94 84.9999C1366.94 55.1898 1391.19 30.9401 1421 30.9401C1450.81 30.9401 1475.06 55.1918 1475.06 84.9999ZM1421 165.945C1376.56 165.945 1340.37 129.944 1340.06 85.5741H1365.8C1366.11 115.753 1390.75 140.21 1421 140.21C1451.25 140.21 1475.89 115.753 1476.21 85.5741H1501.94C1501.63 129.944 1465.44 165.945 1421 165.945H1421Z" fill="white"/>
<path d="M1349.41 74.7359L1349.81 73.4386C1350.49 73.5527 1351.16 73.6764 1351.83 73.8098C1352.5 73.9432 1353.16 74.0766 1353.83 74.21L1354.51 74.3454C1355.18 74.4807 1355.85 74.6141 1356.53 74.7494C1357.2 74.8848 1357.86 75.0278 1358.51 75.1786L1358.39 76.5339L1359.13 76.6828L1360.1 71.8204L1359.36 71.6716L1358.91 73.0771C1358.27 72.9592 1357.62 72.8374 1356.96 72.7117C1356.3 72.586 1355.6 72.4468 1354.85 72.298L1355.27 70.1829L1356.83 70.2641L1356.99 69.4598L1353.27 68.7155L1353.11 69.5198L1354.44 69.9992L1354.02 72.1298C1353.44 72.0138 1352.82 71.8881 1352.16 71.7508C1351.5 71.6136 1350.85 71.4744 1350.19 71.3313L1350.84 68.0794L1352.83 68.1336L1353.05 67.0277L1350.26 66.585L1348.66 74.589L1349.41 74.7378V74.7359Z" fill="white"/>
<path d="M1360.75 65.6473L1361.45 65.9373L1362.82 62.6371L1362.13 62.3471L1361.4 63.5593L1359.54 61.9488L1360.89 58.7085L1363.38 58.9115L1363 60.2881L1363.69 60.5723L1365.48 56.2764L1364.79 55.9922L1364.25 56.9531L1353.85 56.2648L1353.34 57.4828L1361.08 64.3519L1360.76 65.6453L1360.75 65.6473ZM1355.33 58.2774L1360.01 58.6389L1358.87 61.3591L1355.33 58.2774Z" fill="white"/>
<path d="M1359.19 47.6828L1365.4 48.5682C1365.94 48.9356 1366.43 49.2662 1366.86 49.5581C1367.29 49.85 1367.7 50.1342 1368.08 50.4068L1367.37 51.7486L1367.99 52.1739L1370.9 47.8974L1370.27 47.472L1369.28 48.6475C1368.85 48.373 1368.41 48.081 1367.96 47.7698C1367.5 47.4585 1366.98 47.1047 1366.39 46.7064L1363.45 41.5792L1364 40.396L1363.37 39.9707L1361.4 42.8746L1362.03 43.2999L1362.91 42.3429L1365.41 46.5711L1360.56 45.7494L1361.21 44.514L1360.58 44.0887L1357.85 48.112L1358.48 48.5373L1359.19 47.6808V47.6828Z" fill="white"/>
<path d="M1369.31 34.712C1369.8 35.1953 1370.28 35.6844 1370.75 36.1774C1371.22 36.6724 1371.69 37.1634 1372.15 37.6545L1372.63 38.1572C1373.1 38.656 1373.58 39.1528 1374.05 39.6516C1374.52 40.1504 1374.98 40.6473 1375.42 41.1442L1374.54 42.1804L1375.06 42.7295L1381.18 36.9179L1379.32 34.797L1378.5 35.5723L1379.61 37.2292L1377.01 39.7019C1376.54 39.2263 1376.07 38.7449 1375.6 38.2538C1375.13 37.7628 1374.62 37.2388 1374.09 36.6782L1375.61 35.2359L1376.7 36.1059L1377.31 35.5298L1374.8 32.8927L1374.2 33.4688L1375.01 34.6288L1373.51 36.0595C1373.1 35.6322 1372.67 35.1721 1372.21 34.683C1371.75 34.1938 1371.29 33.6989 1370.83 33.202L1373.2 30.9497L1374.8 32.1406L1375.62 31.3634L1373.59 29.3992L1367.71 34.9884L1368.23 35.5375L1369.31 34.71L1369.31 34.712Z" fill="white"/>
<path d="M1381.64 26.9613L1380.85 25.0106L1382.65 23.9144C1383.03 24.4905 1383.39 25.0744 1383.75 25.666C1384.11 26.2576 1384.47 26.8472 1384.83 27.433L1385.19 28.0246C1385.55 28.6124 1385.9 29.1962 1386.26 29.7782C1386.61 30.3601 1386.95 30.942 1387.28 31.522L1386.07 32.4462L1386.46 33.0919L1390.89 30.3988L1390.5 29.753L1389.12 30.4026C1388.76 29.8304 1388.4 29.2542 1388.04 28.6742C1387.68 28.0942 1387.33 27.5162 1386.98 26.9381L1386.62 26.3465C1386.26 25.751 1385.9 25.1556 1385.54 24.5601C1385.19 23.9666 1384.84 23.3769 1384.49 22.793L1386.31 21.6891L1387.68 23.288L1388.63 22.7099L1387.04 20.2488L1379.24 24.9932L1380.68 27.5471L1381.64 26.9613H1381.64Z" fill="white"/>
<path d="M1395.15 19.8021L1394.81 17.7276L1396.8 17.049C1397.05 17.6928 1397.28 18.3424 1397.5 18.9978C1397.72 19.6532 1397.94 20.3067 1398.16 20.9563L1398.39 21.6117C1398.61 22.2613 1398.83 22.9109 1399.05 23.5547C1399.26 24.2004 1399.47 24.8423 1399.66 25.4784L1398.28 26.1164L1398.53 26.8336L1403.44 25.169L1403.19 24.4518L1401.71 24.7862C1401.48 24.1502 1401.26 23.5083 1401.03 22.8645C1400.81 22.2207 1400.59 21.5788 1400.37 20.9389L1400.15 20.2835C1399.92 19.6223 1399.7 18.963 1399.48 18.3057C1399.27 17.6484 1399.06 16.9968 1398.85 16.353L1400.86 15.6706L1401.85 17.5285L1402.9 17.1708L1401.88 14.4216L1393.24 17.3545L1394.09 20.1598L1395.16 19.7982L1395.15 19.8021Z" fill="white"/>
<path d="M1410.06 13.7101C1410.16 14.3907 1410.25 15.0693 1410.32 15.7459C1410.4 16.4226 1410.48 17.0973 1410.55 17.7701L1410.63 18.4584C1410.7 19.1409 1410.78 19.8233 1410.86 20.5058C1410.93 21.1883 1411 21.8611 1411.05 22.5261L1409.72 22.8219L1409.81 23.574L1418.19 22.6325L1417.99 19.8195L1416.87 19.9451L1416.75 21.9345L1413.18 22.3347C1413.1 21.6755 1413.02 21.0065 1412.93 20.3299C1412.85 19.6532 1412.77 18.9301 1412.68 18.1626L1414.76 17.9287L1415.11 19.2839L1415.94 19.1911L1415.53 15.5758L1414.7 15.6686L1414.65 17.0838L1412.59 17.3158C1412.52 16.73 1412.45 16.1017 1412.38 15.4347C1412.31 14.7677 1412.25 14.0968 1412.18 13.424L1415.43 13.0586L1415.99 14.9726L1417.1 14.8469L1416.68 12.0591L1408.61 12.9658L1408.7 13.7179L1410.06 13.7101H1410.06Z" fill="white"/>
<path d="M1432.7 23.3845C1433.41 23.9974 1434.29 24.415 1435.32 24.6373C1435.93 24.7727 1436.53 24.8307 1437.11 24.8133C1437.68 24.7959 1438.22 24.7089 1438.73 24.5561L1439.3 22.2265L1438.23 21.9945L1437.44 23.8311C1436.84 23.9549 1436.27 23.9568 1435.74 23.8408C1435.1 23.7016 1434.56 23.4077 1434.11 22.9611C1433.67 22.5145 1433.38 21.9152 1433.23 21.1631C1433.08 20.4111 1433.12 19.5159 1433.34 18.4777C1433.57 17.4299 1433.92 16.5966 1434.39 15.9779C1434.86 15.3612 1435.39 14.9397 1436 14.7135C1436.6 14.4873 1437.22 14.4429 1437.85 14.5801C1438.08 14.6304 1438.3 14.7058 1438.52 14.8083C1438.74 14.9107 1438.95 15.0499 1439.16 15.2259L1439.11 17.2597L1440.2 17.4956L1440.65 15.1215C1440.2 14.729 1439.74 14.4197 1439.25 14.1915C1438.76 13.9653 1438.26 13.7952 1437.75 13.6831C1436.75 13.4665 1435.79 13.4859 1434.88 13.743C1433.96 14.0001 1433.17 14.4835 1432.5 15.1949C1431.84 15.9064 1431.38 16.8344 1431.13 17.9789C1430.88 19.1215 1430.9 20.1559 1431.19 21.0819C1431.48 22.008 1431.98 22.7755 1432.7 23.3865L1432.7 23.3845Z" fill="white"/>
<path d="M1446.07 27.8468C1446.51 28.3186 1447.02 28.6917 1447.6 28.9681C1448.19 29.2446 1448.8 29.3993 1449.44 29.4322C1450.09 29.465 1450.73 29.3684 1451.36 29.1422C1452 28.916 1452.59 28.5467 1453.14 28.0344C1453.69 27.522 1454.15 26.8589 1454.54 26.043C1454.93 25.2098 1455.16 24.4152 1455.21 23.6592C1455.26 22.9052 1455.17 22.215 1454.94 21.5906C1454.72 20.9661 1454.39 20.419 1453.95 19.9511C1453.51 19.4813 1453 19.1101 1452.42 18.8336C1451.84 18.5572 1451.22 18.3986 1450.58 18.358C1449.93 18.3174 1449.29 18.4122 1448.66 18.6403C1448.03 18.8684 1447.44 19.2396 1446.89 19.7481C1446.33 20.2585 1445.86 20.9216 1445.48 21.7356C1445.08 22.5785 1444.85 23.375 1444.8 24.1213C1444.75 24.8695 1444.83 25.5597 1445.06 26.19C1445.29 26.8222 1445.63 27.3731 1446.07 27.8449L1446.07 27.8468ZM1446.78 24.9565C1446.91 24.2257 1447.17 23.4794 1447.53 22.7119C1447.89 21.9444 1448.31 21.2793 1448.79 20.709C1449.27 20.1406 1449.79 19.7442 1450.35 19.5219C1450.9 19.2996 1451.47 19.3266 1452.06 19.6031C1452.64 19.8796 1453.01 20.301 1453.18 20.8694C1453.35 21.4378 1453.37 22.0874 1453.23 22.8163C1453.09 23.5471 1452.84 24.2953 1452.47 25.0609C1452.11 25.8265 1451.69 26.4954 1451.21 27.0638C1450.73 27.6322 1450.22 28.0305 1449.67 28.2586C1449.13 28.4867 1448.56 28.4616 1447.98 28.1852C1447.4 27.9087 1447.02 27.4853 1446.84 26.9111C1446.66 26.3388 1446.64 25.6873 1446.78 24.9565H1446.78Z" fill="white"/>
<path d="M1460.02 36.7963C1460.65 37.3105 1461.3 37.6315 1461.97 37.7591C1462.64 37.8867 1463.33 37.7881 1464.03 37.4594C1464.73 37.1307 1465.43 36.5275 1466.14 35.6517L1469.47 31.5492L1470.63 32.2858L1471.11 31.6981L1468.11 29.264L1467.63 29.8517L1468.73 30.9731L1465.55 34.8997C1464.71 35.934 1463.95 36.5275 1463.26 36.6841C1462.58 36.8407 1461.91 36.6571 1461.27 36.137C1460.86 35.8064 1460.58 35.4391 1460.43 35.035C1460.28 34.6309 1460.29 34.1708 1460.47 33.6527C1460.64 33.1345 1461 32.5391 1461.54 31.8643L1462.34 30.888C1462.75 30.3718 1463.17 29.8556 1463.6 29.3433C1464.02 28.829 1464.44 28.3225 1464.87 27.8198L1466.12 28.6279L1466.59 28.0402L1462.79 24.9565L1462.32 25.5443L1463.21 26.4355C1462.81 26.9653 1462.4 27.4911 1461.97 28.0131C1461.55 28.5351 1461.13 29.0533 1460.71 29.5695L1459.61 30.9325C1458.96 31.7251 1458.57 32.4753 1458.44 33.1829C1458.31 33.8905 1458.39 34.5478 1458.67 35.151C1458.96 35.7542 1459.4 36.3033 1460.01 36.7963H1460.02Z" fill="white"/>
<path d="M1475.93 38.5342L1469.07 43.7194L1468.09 42.745L1467.48 43.2013L1469.93 46.4377L1470.54 45.9814L1469.65 44.4328L1475.47 40.0326L1472.47 49.9042L1473.05 50.6621L1480.84 44.7673L1481.83 45.732L1482.44 45.2758L1479.99 42.0394L1479.39 42.4956L1480.29 44.0346L1475.25 47.8413L1477.86 39.2283L1476.03 36.8L1475.42 37.2563L1476.01 38.2249L1475.93 38.5342Z" fill="white"/>
<path d="M1482.78 56.6206L1482.15 56.9009C1481.52 57.1774 1480.9 57.4539 1480.27 57.7303C1479.65 58.0068 1479.03 58.2678 1478.41 58.5172L1477.66 57.1987L1476.96 57.5041L1479.06 62.2466L1479.75 61.9411L1479.28 60.4911C1479.9 60.2089 1480.52 59.9266 1481.14 59.6463C1481.76 59.3659 1482.38 59.0895 1483 58.8169L1483.63 58.5365C1484.27 58.2543 1484.91 57.9759 1485.54 57.7013C1486.18 57.4268 1486.81 57.1581 1487.43 56.8951L1488.29 58.8401L1486.52 59.9885L1486.97 61.0054L1489.62 59.7487L1485.93 51.3967L1483.21 52.491L1483.67 53.5215L1485.71 52.9917L1486.56 54.9212C1485.94 55.2189 1485.31 55.507 1484.68 55.7854C1484.05 56.0638 1483.41 56.3441 1482.79 56.6206H1482.78Z" fill="white"/>
<path d="M1485.98 70.9949C1485.34 71.1225 1484.76 71.2365 1484.25 71.339C1483.74 71.4395 1483.26 71.5323 1482.79 71.6135L1482.34 70.1616L1481.6 70.3085L1482.6 75.3777L1483.34 75.2308L1483.2 73.6996C1483.7 73.5913 1484.21 73.4831 1484.76 73.3748C1485.3 73.2665 1485.92 73.1447 1486.61 73.0055L1492.33 74.5135L1492.79 75.7354L1493.53 75.5885L1492.85 72.1452L1492.1 72.2921L1492.17 73.5933L1487.4 72.4062L1491.39 69.5294L1491.82 70.8557L1492.56 70.7087L1491.61 65.9392L1490.87 66.0861L1490.98 67.1978L1485.99 70.9949H1485.98Z" fill="white"/>
<path d="M1357.21 106.172C1357.79 106.33 1358.38 106.33 1358.97 106.174C1359.91 105.926 1360.57 105.379 1360.97 104.536C1361.36 103.693 1361.36 102.526 1360.97 101.037L1359.84 96.7585L1359.09 96.9557L1359.3 98.3245C1358.63 98.5237 1357.96 98.7112 1357.29 98.8891C1356.62 99.065 1355.95 99.2429 1355.28 99.4188L1354.6 99.5986C1353.93 99.7765 1353.25 99.9563 1352.58 100.134C1351.9 100.312 1351.23 100.478 1350.57 100.629L1350.08 99.3357L1349.33 99.5329L1350.62 104.413L1351.37 104.215L1351.14 102.733C1351.7 102.574 1352.24 102.423 1352.77 102.278C1353.3 102.133 1353.81 101.994 1354.32 101.861L1354.49 102.51C1354.79 103.63 1355.17 104.48 1355.64 105.062C1356.11 105.644 1356.63 106.013 1357.21 106.172ZM1355.13 101.646L1355.83 101.462C1356.51 101.281 1357.2 101.103 1357.89 100.927C1358.58 100.751 1359.26 100.579 1359.94 100.411L1360.12 101.091C1360.33 101.915 1360.3 102.584 1360 103.096C1359.71 103.608 1359.18 103.964 1358.43 104.161C1357.69 104.357 1357.05 104.324 1356.49 104.063C1355.94 103.802 1355.55 103.255 1355.33 102.421L1355.13 101.644L1355.13 101.646Z" fill="white"/>
<path d="M1367.69 118.835L1368.37 118.48L1366.56 114.99L1365.88 115.346L1366.45 116.84L1361.89 119.214C1360.68 119.839 1359.73 120.086 1359.03 119.953C1358.32 119.819 1357.78 119.381 1357.39 118.634C1357.14 118.159 1357.03 117.702 1357.06 117.266C1357.08 116.829 1357.28 116.403 1357.65 115.988C1358.02 115.572 1358.6 115.162 1359.38 114.754L1360.52 114.164C1361.12 113.851 1361.72 113.542 1362.32 113.235C1362.93 112.927 1363.53 112.624 1364.12 112.326L1364.97 113.588L1365.65 113.233L1363.35 108.813L1362.67 109.169L1363.14 110.364C1362.55 110.696 1361.95 111.019 1361.35 111.334C1360.74 111.649 1360.14 111.962 1359.54 112.276L1357.95 113.099C1357.03 113.579 1356.37 114.122 1355.96 114.729C1355.55 115.336 1355.35 115.98 1355.37 116.658C1355.39 117.337 1355.59 118.031 1355.95 118.739C1356.34 119.475 1356.81 120.04 1357.39 120.43C1357.96 120.823 1358.64 121.007 1359.43 120.985C1360.22 120.962 1361.12 120.688 1362.14 120.158L1366.91 117.679L1367.7 118.839L1367.69 118.835Z" fill="white"/>
<path d="M1374.29 129.996C1374.86 129.509 1375.14 128.877 1375.13 128.1C1375.12 127.325 1374.7 126.456 1373.89 125.499L1370.64 121.677L1370.05 122.176L1370.83 123.321C1370.31 123.79 1369.79 124.251 1369.26 124.703C1368.72 125.155 1368.19 125.608 1367.66 126.06L1367.17 126.474C1366.63 126.934 1366.09 127.39 1365.56 127.843C1365.03 128.295 1364.49 128.736 1363.95 129.165L1362.95 128.212L1362.36 128.711L1365.32 132.197C1365.91 132.889 1366.46 133.409 1366.99 133.757C1367.51 134.107 1368 134.319 1368.46 134.401C1368.91 134.48 1369.33 134.464 1369.7 134.356C1370.07 134.248 1370.4 134.076 1370.67 133.842C1371.2 133.397 1371.48 132.823 1371.53 132.121C1371.58 131.419 1371.29 130.582 1370.65 129.608C1371.42 130.238 1372.12 130.551 1372.73 130.551C1373.33 130.551 1373.85 130.368 1374.29 129.998V129.996ZM1369.24 132.154C1368.14 133.088 1366.99 132.85 1365.8 131.443L1365.3 130.855C1365.82 130.4 1366.35 129.94 1366.89 129.472C1367.43 129.005 1368.01 128.51 1368.63 127.988L1369.1 128.55C1369.73 129.291 1370.06 129.956 1370.08 130.542C1370.09 131.127 1369.81 131.665 1369.24 132.154ZM1371.26 129.063C1370.75 128.981 1370.22 128.622 1369.67 127.98L1369.24 127.468C1369.68 127.093 1370.16 126.685 1370.69 126.244C1371.22 125.803 1371.75 125.36 1372.29 124.916L1372.86 125.577C1373.34 126.143 1373.58 126.663 1373.59 127.137C1373.6 127.611 1373.34 128.067 1372.83 128.504C1372.29 128.956 1371.77 129.142 1371.26 129.063H1371.26Z" fill="white"/>
<path d="M1379.09 132.079L1380.08 133.041C1379.68 133.589 1379.27 134.138 1378.85 134.685C1378.42 135.232 1377.99 135.787 1377.55 136.346L1377.01 137.043C1376.63 137.535 1376.23 138.045 1375.82 138.575C1375.4 139.104 1374.98 139.634 1374.54 140.164L1373.36 139.435L1372.88 140.042L1379.44 145.146L1381.5 142.764L1380.6 142.059L1378.85 143.561L1376.24 141.527C1376.65 140.978 1377.06 140.438 1377.46 139.909C1377.87 139.379 1378.25 138.886 1378.61 138.43L1379.22 137.641C1379.65 137.09 1380.08 136.541 1380.51 135.998C1380.94 135.454 1381.37 134.917 1381.79 134.389L1383.03 135.145L1383.5 134.536L1379.56 131.466L1379.09 132.073V132.079Z" fill="white"/>
<path d="M1389.39 139.443L1390.54 140.218C1390.23 140.846 1389.92 141.467 1389.59 142.08C1389.27 142.693 1388.94 143.304 1388.62 143.911L1388.29 144.533C1387.96 145.152 1387.63 145.769 1387.31 146.387C1386.98 147.006 1386.65 147.607 1386.31 148.195L1385.03 147.681L1384.67 148.361L1389.02 150.672L1389.39 149.991L1388.24 149.216C1388.56 148.593 1388.87 147.975 1389.2 147.358C1389.52 146.741 1389.84 146.13 1390.16 145.523L1390.49 144.901C1390.82 144.274 1391.15 143.654 1391.48 143.045C1391.81 142.434 1392.14 141.832 1392.47 141.239L1393.76 141.753L1394.12 141.073L1389.76 138.762L1389.4 139.443H1389.39Z" fill="white"/>
<path d="M1404.77 144.947C1404.3 144.67 1403.81 144.45 1403.3 144.288C1402.31 143.972 1401.34 143.899 1400.38 144.071C1399.43 144.241 1398.58 144.657 1397.84 145.314C1397.1 145.972 1396.54 146.867 1396.18 148.002C1395.82 149.136 1395.74 150.186 1395.94 151.151C1396.14 152.116 1396.58 152.943 1397.25 153.631C1397.91 154.322 1398.76 154.828 1399.78 155.155C1400.39 155.35 1400.99 155.468 1401.58 155.505C1402.16 155.542 1402.72 155.507 1403.25 155.4L1404.05 153.094L1402.99 152.756L1402.01 154.54C1401.39 154.606 1400.81 154.556 1400.28 154.385C1399.65 154.182 1399.13 153.832 1398.72 153.338C1398.32 152.841 1398.08 152.205 1398 151.429C1397.92 150.652 1398.05 149.749 1398.38 148.719C1398.71 147.679 1399.14 146.869 1399.68 146.287C1400.21 145.707 1400.8 145.332 1401.43 145.161C1402.07 144.991 1402.69 145.005 1403.32 145.206C1403.55 145.279 1403.77 145.378 1403.98 145.504C1404.19 145.629 1404.39 145.79 1404.58 145.989L1404.34 148.044L1405.41 148.388L1406.1 146.028C1405.69 145.587 1405.25 145.229 1404.77 144.951V144.947Z" fill="white"/>
<path d="M1421.98 151.615L1421.27 151.331C1420.74 151.122 1420.32 150.871 1420.02 150.581C1419.72 150.291 1419.56 149.912 1419.56 149.442C1419.55 148.906 1419.73 148.491 1420.11 148.195C1420.49 147.899 1420.95 147.746 1421.5 147.739C1421.93 147.731 1422.34 147.812 1422.73 147.98L1423.09 149.875L1424.33 149.856L1424.41 147.642C1424.04 147.387 1423.6 147.186 1423.11 147.041C1422.61 146.896 1422.08 146.828 1421.51 146.838C1420.75 146.849 1420.07 146.985 1419.49 147.238C1418.91 147.493 1418.46 147.856 1418.14 148.326C1417.82 148.796 1417.67 149.353 1417.68 149.997C1417.69 150.859 1417.97 151.555 1418.51 152.081C1419.05 152.607 1419.77 153.055 1420.67 153.423L1421.35 153.689C1421.95 153.919 1422.39 154.169 1422.67 154.438C1422.95 154.706 1423.09 155.081 1423.1 155.561C1423.11 156.096 1422.92 156.527 1422.54 156.856C1422.15 157.185 1421.62 157.355 1420.95 157.365C1420.62 157.37 1420.33 157.345 1420.06 157.289C1419.8 157.233 1419.54 157.154 1419.29 157.048L1418.93 155.07L1417.67 155.089L1417.61 157.45C1418.04 157.716 1418.55 157.921 1419.16 158.064C1419.76 158.208 1420.37 158.273 1420.98 158.264C1422.25 158.242 1423.24 157.931 1423.96 157.33C1424.67 156.729 1425.02 155.947 1425.01 154.985C1424.99 154.177 1424.76 153.519 1424.3 153.013C1423.83 152.506 1423.07 152.038 1421.99 151.607L1421.98 151.615Z" fill="white"/>
<path d="M1438.54 152.874L1438.56 154.911C1438.06 155.271 1437.53 155.509 1436.98 155.621C1436.33 155.754 1435.71 155.704 1435.11 155.47C1434.52 155.236 1434 154.799 1433.55 154.161C1433.1 153.523 1432.76 152.674 1432.55 151.615C1432.33 150.546 1432.31 149.626 1432.49 148.858C1432.67 148.09 1433 147.478 1433.47 147.017C1433.94 146.559 1434.49 146.263 1435.13 146.132C1435.37 146.084 1435.61 146.062 1435.86 146.068C1436.1 146.074 1436.36 146.117 1436.62 146.196L1437.41 148.108L1438.52 147.88L1437.96 145.484C1437.39 145.301 1436.83 145.204 1436.28 145.194C1435.73 145.185 1435.2 145.233 1434.67 145.341C1433.66 145.55 1432.77 145.964 1432.02 146.581C1431.28 147.197 1430.74 147.974 1430.41 148.91C1430.08 149.846 1430.04 150.9 1430.28 152.065C1430.52 153.231 1430.97 154.186 1431.61 154.929C1432.26 155.671 1433.05 156.18 1433.97 156.452C1434.89 156.725 1435.87 156.756 1436.92 156.539C1437.55 156.41 1438.13 156.218 1438.66 155.965C1439.19 155.712 1439.66 155.408 1440.06 155.058L1439.64 152.653L1438.54 152.877V152.874Z" fill="white"/>
<path d="M1455.52 148.427C1455.21 147.798 1454.91 147.172 1454.61 146.546C1454.31 145.919 1454.02 145.295 1453.73 144.672L1453.43 144.034C1453.12 143.39 1452.83 142.754 1452.54 142.124C1452.25 141.494 1451.97 140.869 1451.69 140.253L1452.86 139.541L1452.53 138.843L1448.11 140.916L1448.44 141.614L1449.7 141.185C1450 141.759 1450.28 142.343 1450.56 142.936C1450.84 143.53 1451.12 144.133 1451.41 144.746L1447.39 146.631C1447.13 146.087 1446.86 145.507 1446.58 144.891C1446.3 144.276 1446.02 143.659 1445.74 143.041L1446.9 142.337L1446.57 141.639L1442.15 143.711L1442.48 144.409L1443.77 143.967C1444.09 144.591 1444.39 145.216 1444.68 145.844C1444.98 146.472 1445.27 147.099 1445.56 147.721L1445.86 148.359C1446.16 148.991 1446.46 149.625 1446.75 150.258C1447.05 150.89 1447.33 151.518 1447.6 152.141L1446.43 152.852L1446.76 153.55L1451.18 151.478L1450.85 150.78L1449.57 151.217C1449.28 150.627 1448.99 150.022 1448.69 149.401C1448.4 148.781 1448.08 148.114 1447.75 147.402L1451.77 145.517C1452.07 146.161 1452.37 146.803 1452.67 147.447C1452.97 148.09 1453.26 148.726 1453.53 149.361L1452.39 150.057L1452.72 150.755L1457.14 148.682L1456.81 147.984L1455.52 148.427Z" fill="white"/>
<path d="M1467.29 134.459C1466.7 133.726 1466.07 133.171 1465.4 132.79C1464.73 132.411 1464.06 132.187 1463.39 132.117C1462.71 132.048 1462.07 132.109 1461.44 132.303C1460.82 132.496 1460.25 132.798 1459.74 133.208C1459.23 133.617 1458.81 134.11 1458.49 134.687C1458.17 135.263 1457.97 135.889 1457.9 136.57C1457.83 137.25 1457.91 137.956 1458.13 138.687C1458.36 139.417 1458.75 140.141 1459.33 140.856C1459.93 141.596 1460.55 142.157 1461.22 142.536C1461.88 142.915 1462.55 143.139 1463.23 143.209C1463.91 143.278 1464.56 143.216 1465.19 143.019C1465.82 142.824 1466.39 142.521 1466.9 142.109C1467.41 141.699 1467.82 141.206 1468.14 140.63C1468.45 140.054 1468.65 139.425 1468.72 138.741C1468.79 138.058 1468.72 137.353 1468.49 136.624C1468.26 135.895 1467.86 135.174 1467.29 134.459ZM1466.34 141.419C1465.83 141.828 1465.28 141.991 1464.67 141.902C1464.07 141.813 1463.46 141.542 1462.85 141.092C1462.25 140.641 1461.67 140.079 1461.13 139.408C1460.59 138.735 1460.17 138.054 1459.86 137.364C1459.55 136.674 1459.41 136.025 1459.46 135.416C1459.5 134.807 1459.78 134.296 1460.29 133.886C1460.8 133.476 1461.35 133.318 1461.94 133.414C1462.54 133.511 1463.14 133.784 1463.75 134.234C1464.36 134.685 1464.93 135.247 1465.47 135.918C1466.01 136.591 1466.44 137.271 1466.75 137.962C1467.06 138.652 1467.2 139.3 1467.16 139.901C1467.13 140.504 1466.85 141.011 1466.34 141.42V141.419Z" fill="white"/>
<path d="M1479.33 123.966C1478.94 123.313 1478.38 122.706 1477.65 122.145C1476.91 121.573 1476.17 121.178 1475.43 120.968C1474.69 120.757 1473.98 120.695 1473.31 120.786C1472.64 120.877 1472.03 121.09 1471.47 121.422C1470.91 121.755 1470.43 122.182 1470.03 122.702C1469.63 123.22 1469.34 123.798 1469.16 124.432C1468.98 125.066 1468.94 125.724 1469.03 126.4C1469.12 127.079 1469.36 127.746 1469.75 128.403C1470.14 129.063 1470.7 129.672 1471.43 130.23C1472.18 130.81 1472.92 131.207 1473.65 131.419C1474.39 131.632 1475.09 131.692 1475.77 131.601C1476.45 131.51 1477.07 131.296 1477.63 130.957C1478.19 130.619 1478.68 130.192 1479.08 129.672C1479.48 129.152 1479.76 128.575 1479.93 127.943C1480.1 127.311 1480.14 126.652 1480.06 125.969C1479.97 125.287 1479.73 124.62 1479.33 123.964L1479.33 123.966ZM1478.37 129.132C1477.97 129.652 1477.47 129.938 1476.86 129.994C1476.25 130.051 1475.6 129.931 1474.9 129.635C1474.21 129.339 1473.52 128.929 1472.83 128.401C1472.15 127.876 1471.58 127.313 1471.11 126.714C1470.65 126.116 1470.37 125.515 1470.27 124.914C1470.17 124.312 1470.32 123.752 1470.72 123.232C1471.12 122.714 1471.62 122.429 1472.22 122.383C1472.82 122.337 1473.47 122.46 1474.17 122.756C1474.86 123.052 1475.55 123.462 1476.24 123.99C1476.92 124.515 1477.49 125.078 1477.95 125.677C1478.42 126.275 1478.7 126.872 1478.81 127.466C1478.92 128.059 1478.77 128.616 1478.37 129.134V129.132Z" fill="white"/>
<path d="M1485.51 111.993L1487.36 113.375L1485.94 116.368C1485.31 116.084 1484.7 115.802 1484.09 115.521C1483.49 115.241 1482.92 114.978 1482.4 114.731L1481.5 114.303C1480.87 114.004 1480.24 113.704 1479.62 113.403C1478.99 113.101 1478.37 112.801 1477.77 112.502L1478.23 111.129L1477.54 110.8L1475.4 115.318L1476.1 115.647L1476.82 114.466C1477.44 114.737 1478.07 115.019 1478.69 115.315C1479.32 115.61 1479.96 115.912 1480.6 116.216L1481.4 116.594C1481.96 116.861 1482.55 117.138 1483.15 117.424C1483.76 117.71 1484.37 118.012 1484.98 118.325L1484.53 119.632L1485.22 119.96L1488.78 112.449L1486 110.955L1485.51 111.993H1485.51Z" fill="white"/>
<path d="M1491.83 100.2C1491.43 99.3511 1490.77 98.8098 1489.84 98.5739C1489.06 98.3748 1488.36 98.4347 1487.75 98.7479C1487.14 99.0611 1486.49 99.6836 1485.79 100.612L1485.33 101.223C1484.99 101.689 1484.64 102.027 1484.28 102.241C1483.92 102.456 1483.52 102.504 1483.06 102.39C1482.54 102.259 1482.19 101.973 1482 101.532C1481.82 101.091 1481.79 100.606 1481.92 100.074C1482.03 99.6508 1482.22 99.2757 1482.48 98.947L1484.4 99.094L1484.71 97.8856L1482.59 97.2322C1482.24 97.528 1481.94 97.8953 1481.67 98.3342C1481.4 98.773 1481.2 99.268 1481.06 99.819C1480.87 100.561 1480.83 101.244 1480.92 101.872C1481.02 102.499 1481.25 103.028 1481.62 103.459C1481.99 103.891 1482.49 104.186 1483.11 104.343C1483.95 104.554 1484.69 104.469 1485.34 104.086C1485.99 103.703 1486.61 103.125 1487.2 102.35L1487.63 101.766C1488.01 101.242 1488.37 100.88 1488.7 100.683C1489.03 100.486 1489.43 100.445 1489.9 100.563C1490.41 100.695 1490.78 100.987 1491 101.443C1491.22 101.899 1491.24 102.454 1491.08 103.11C1491 103.427 1490.9 103.705 1490.77 103.945C1490.65 104.184 1490.51 104.413 1490.34 104.629L1488.34 104.461L1488.03 105.685L1490.29 106.358C1490.66 106.011 1490.99 105.565 1491.29 105.02C1491.58 104.474 1491.8 103.906 1491.96 103.313C1492.26 102.085 1492.22 101.045 1491.83 100.196L1491.83 100.2Z" fill="white"/>
<path d="M1421 33.0339C1392.35 33.0339 1369.03 56.3461 1369.03 85C1369.03 113.654 1392.35 136.966 1421 136.966C1449.65 136.966 1472.97 113.654 1472.97 85C1472.97 56.3461 1449.65 33.0339 1421 33.0339ZM1421 136.39C1392.66 136.39 1369.61 113.337 1369.61 85C1369.61 56.6631 1392.66 33.6101 1421 33.6101C1449.34 33.6101 1472.39 56.6631 1472.39 85C1472.39 113.337 1449.34 136.39 1421 136.39Z" fill="white"/>
<path d="M1421 0.111084C1374.19 0.111084 1336.11 38.1919 1336.11 84.9999C1336.11 131.808 1374.19 169.889 1421 169.889C1467.81 169.889 1505.89 131.808 1505.89 84.9999C1505.89 38.1919 1467.81 0.111084 1421 0.111084ZM1421 169.314C1374.51 169.314 1336.69 131.491 1336.69 84.9999C1336.69 38.509 1374.51 0.685284 1421 0.685284C1467.49 0.685284 1505.31 38.509 1505.31 84.9999C1505.31 131.491 1467.49 169.314 1421 169.314Z" fill="white"/>
<path d="M1421.11 77.5315C1416.19 74.5832 1409.33 75.5614 1407.35 77.8312L1407.21 77.9936V95.1248L1408.04 94.713C1411.87 92.8145 1416.2 92.8203 1420.89 94.7304L1421.12 94.8232L1421.35 94.7188C1425.68 92.7333 1429.88 92.7314 1434.19 94.7188L1435.01 95.0939V77.8524L1434.69 77.6939C1428.18 74.4266 1423.49 76.0854 1421.11 77.5296L1421.11 77.5315ZM1414.12 92.1417C1412.11 92.1417 1410.19 92.5284 1408.36 93.3036V78.4421C1410.05 76.849 1416.08 75.8534 1420.54 78.533V93.3655C1418.32 92.5535 1416.18 92.1417 1414.12 92.1417H1414.12ZM1433.86 93.323C1429.78 91.6603 1425.78 91.6642 1421.68 93.3288V78.531C1426.23 75.7412 1431.13 77.2647 1433.86 78.5697V93.3249V93.323Z" fill="white"/>
<path d="M1417.57 81.6708L1417.94 80.5842C1415.76 79.8302 1412.93 79.8554 1410.77 80.65L1411.17 81.7288C1413.08 81.025 1415.63 81.0018 1417.57 81.6727V81.6708Z" fill="white"/>
<path d="M1410.77 88.2711L1411.17 89.3499C1413.08 88.6462 1415.63 88.623 1417.57 89.2938L1417.94 88.2073C1415.76 87.4533 1412.93 87.4784 1410.77 88.273V88.2711Z" fill="white"/>
<path d="M1424.57 81.6708C1426.51 81.0018 1429.06 81.0231 1430.96 81.7268L1431.36 80.648C1429.21 79.8534 1426.38 79.8283 1424.19 80.5823L1424.57 81.6688V81.6708Z" fill="white"/>
<path d="M1424.19 88.2056L1424.57 89.2921C1426.51 88.6232 1429.06 88.6444 1430.96 89.3482L1431.36 88.2694C1429.21 87.4748 1426.38 87.4496 1424.19 88.2036V88.2056Z" fill="white"/>
<path d="M1410.77 84.4605L1411.17 85.5393C1413.08 84.8356 1415.63 84.8124 1417.57 85.4833L1417.94 84.3967C1415.76 83.6427 1412.92 83.6679 1410.77 84.4625V84.4605Z" fill="white"/>
<path d="M1424.19 84.3948L1424.57 85.4813C1426.51 84.8124 1429.06 84.8336 1430.96 85.5374L1431.36 84.4586C1429.21 83.664 1426.38 83.6388 1424.19 84.3928V84.3948Z" fill="white"/>
<path d="M1396.84 90.9894L1400.05 94.1987L1403.26 90.9894V77.5972H1396.84V90.9894H1396.84ZM1398.78 91.2948H1401.33L1400.05 92.5708L1398.78 91.2948ZM1400.63 90.1445V81.4677H1402.11V90.1445H1400.63ZM1399.47 90.1445H1397.99V81.4677H1399.47V90.1445ZM1402.11 78.7456V80.3174H1397.99V78.7456H1402.11Z" fill="white"/>
<path d="M1445.56 79.4281C1445.56 78.2623 1444.18 77.3845 1442.35 77.3845C1440.52 77.3845 1439.14 78.2642 1439.14 79.4281L1439.17 79.5866C1439.17 79.6079 1439.75 81.6456 1439.79 84.7931C1439.38 85.1353 1439.14 85.5683 1439.14 86.0497C1439.14 86.4847 1439.36 86.8965 1439.73 87.2368C1439.6 89.3905 1439.32 91.3277 1439.2 92.045C1439.17 92.1745 1439.14 92.3079 1439.14 92.4452C1439.14 93.611 1440.52 94.4887 1442.35 94.4887C1444.18 94.4887 1445.56 93.6091 1445.56 92.4452C1445.56 92.3099 1445.54 92.1803 1445.51 92.0527C1445.4 91.3393 1445.11 89.3905 1444.98 87.2465C1445.36 86.9062 1445.56 86.4886 1445.56 86.0478C1445.56 85.5645 1445.32 85.1333 1444.92 84.7911C1444.96 81.6823 1445.53 79.604 1445.54 79.5827L1445.56 79.4261L1445.56 79.4281ZM1442.35 85.1565C1442.93 85.1565 1443.41 85.2745 1443.76 85.4349C1443.78 87.376 1443.98 89.3557 1444.16 90.7361C1443.65 90.5235 1443.03 90.4036 1442.35 90.4036C1441.68 90.4036 1441.06 90.5254 1440.55 90.7361C1440.73 89.3654 1440.93 87.3934 1440.94 85.4369C1441.3 85.2764 1441.78 85.1585 1442.35 85.1585V85.1565ZM1442.35 93.3403C1441.14 93.3403 1440.33 92.8203 1440.3 92.4645C1440.3 92.4394 1440.31 92.4027 1440.32 92.364C1440.43 92.0121 1441.21 91.5501 1442.36 91.5501C1443.51 91.5501 1444.29 92.0141 1444.39 92.3659C1444.4 92.4027 1444.41 92.4375 1444.41 92.4626C1444.38 92.8183 1443.57 93.3384 1442.36 93.3384L1442.35 93.3403ZM1442.35 84.0062C1441.84 84.0062 1441.35 84.0797 1440.93 84.2073C1440.84 81.5818 1440.42 79.8147 1440.3 79.3739C1440.38 79.0201 1441.18 78.5349 1442.35 78.5349C1443.53 78.5349 1444.33 79.0221 1444.41 79.3759C1444.29 79.8167 1443.87 81.6069 1443.78 84.2092C1443.36 84.0816 1442.87 84.0081 1442.36 84.0081L1442.35 84.0062Z" fill="white"/>
<path d="M1421 101.88C1416.17 101.88 1412.25 105.806 1412.25 110.634C1412.25 115.462 1416.17 119.388 1421 119.388C1425.83 119.388 1429.75 115.462 1429.75 110.634C1429.75 105.806 1425.83 101.88 1421 101.88ZM1428.25 108.351C1427.36 107.755 1426.12 107.287 1424.64 106.995C1424.35 105.515 1423.88 104.271 1423.28 103.382C1425.64 104.126 1427.51 105.992 1428.25 108.351ZM1421 118.238C1420.09 118.238 1419.12 116.794 1418.58 114.464C1419.34 114.557 1420.15 114.609 1421 114.609C1421.85 114.609 1422.66 114.557 1423.42 114.464C1422.89 116.794 1421.91 118.238 1421 118.238ZM1421 113.461C1420.05 113.461 1419.17 113.391 1418.36 113.273C1418.24 112.463 1418.17 111.581 1418.17 110.634C1418.17 109.687 1418.24 108.805 1418.36 107.995C1419.17 107.877 1420.05 107.807 1421 107.807C1421.95 107.807 1422.83 107.877 1423.64 107.995C1423.76 108.805 1423.83 109.687 1423.83 110.634C1423.83 111.581 1423.76 112.463 1423.64 113.273C1422.83 113.391 1421.95 113.461 1421 113.461ZM1417.17 113.055C1414.84 112.521 1413.4 111.543 1413.4 110.634C1413.4 109.725 1414.84 108.749 1417.17 108.213C1417.08 108.977 1417.03 109.785 1417.03 110.634C1417.03 111.483 1417.08 112.289 1417.17 113.055ZM1421 103.03C1421.91 103.03 1422.89 104.474 1423.42 106.804C1422.66 106.711 1421.85 106.659 1421 106.659C1420.15 106.659 1419.35 106.711 1418.58 106.804C1419.11 104.474 1420.09 103.03 1421 103.03ZM1424.83 108.213C1427.16 108.747 1428.6 109.725 1428.6 110.634C1428.6 111.543 1427.16 112.519 1424.83 113.055C1424.92 112.291 1424.98 111.483 1424.98 110.634C1424.98 109.785 1424.92 108.979 1424.83 108.213ZM1418.72 103.382C1418.12 104.271 1417.65 105.515 1417.36 106.995C1415.88 107.287 1414.64 107.755 1413.75 108.351C1414.49 105.992 1416.36 104.126 1418.72 103.382ZM1413.75 112.917C1414.64 113.513 1415.88 113.981 1417.36 114.273C1417.65 115.753 1418.12 116.997 1418.72 117.886C1416.36 117.142 1414.49 115.276 1413.75 112.917ZM1423.28 117.886C1423.88 116.997 1424.34 115.753 1424.64 114.273C1426.12 113.981 1427.36 113.513 1428.25 112.917C1427.51 115.276 1425.64 117.142 1423.28 117.886Z" fill="white"/>
<path d="M1437.02 101.801H1435.87C1435.87 103.699 1434.32 105.246 1432.42 105.246V106.396C1434.32 106.396 1435.87 107.941 1435.87 109.842H1437.02C1437.02 107.943 1438.56 106.396 1440.46 106.396V105.246C1438.57 105.246 1437.02 103.701 1437.02 101.801ZM1436.45 107.618C1436.03 106.862 1435.4 106.238 1434.65 105.82C1435.4 105.401 1436.03 104.776 1436.45 104.022C1436.86 104.778 1437.49 105.403 1438.24 105.82C1437.49 106.24 1436.86 106.864 1436.45 107.618Z" fill="white"/>
<path d="M1406.35 101.801H1405.2C1405.2 103.699 1403.66 105.246 1401.76 105.246V106.396C1403.66 106.396 1405.2 107.941 1405.2 109.842H1406.35C1406.35 107.943 1407.9 106.396 1409.8 106.396V105.246C1407.9 105.246 1406.35 103.701 1406.35 101.801ZM1405.78 107.618C1405.36 106.862 1404.74 106.238 1403.98 105.82C1404.74 105.401 1405.36 104.776 1405.78 104.022C1406.2 104.778 1406.82 105.403 1407.58 105.82C1406.82 106.24 1406.2 106.864 1405.78 107.618Z" fill="white"/>
<path d="M1455.65 54.4726V54.1846H1386.35V54.4726C1386.35 55.8588 1386.34 57.247 1386.34 58.6332C1386.29 72.5667 1386.24 86.9739 1390.54 99.1984C1395.37 112.913 1405.3 122.441 1420.9 128.326L1421 128.365L1421.1 128.326C1436.7 122.441 1446.63 112.913 1451.46 99.1984C1455.76 86.9758 1455.71 72.5667 1455.66 58.6332C1455.66 57.247 1455.65 55.8588 1455.65 54.4726ZM1450.92 99.007C1446.09 112.71 1436.59 121.845 1421 127.748C1405.41 121.845 1395.9 112.71 1391.08 99.007C1386.81 86.8772 1386.86 72.5203 1386.91 58.6351C1386.92 57.3436 1386.92 56.0522 1386.92 54.7588H1455.07C1455.07 56.0502 1455.08 57.3417 1455.08 58.6332C1455.13 72.5184 1455.18 86.8753 1450.91 99.005L1450.92 99.007Z" fill="white"/>
<path d="M1452.9 57.7265V57.1523H1389.1V57.7265C1389.1 58.9909 1389.1 60.2553 1389.09 61.5178C1389.05 74.2449 1389 87.4071 1392.94 98.5992C1397.37 111.193 1406.48 119.939 1420.8 125.339L1421 125.416L1421.2 125.339C1435.51 119.941 1444.63 111.193 1449.06 98.5992C1453 87.4052 1452.95 74.2449 1452.91 61.5178C1452.9 60.2534 1452.9 58.989 1452.9 57.7265ZM1390.25 58.3027H1451.75C1451.75 59.3757 1451.75 60.4506 1451.76 61.5236C1451.76 62.0127 1451.76 62.5038 1451.76 62.9949H1447.98V60.5705H1446.83V62.9949H1439.21V60.5705H1438.06V62.9949H1430.45V60.5705H1429.3V62.9949H1421.69V60.5705H1420.54V62.9949H1412.92V60.5705H1411.77V62.9949H1404.16V60.5705H1403.01V62.9949H1395.39V60.5705H1394.24V62.9949H1390.24C1390.24 62.5038 1390.24 62.0127 1390.24 61.5236C1390.25 60.4506 1390.25 59.3757 1390.25 58.3027H1390.25ZM1438.06 66.1868H1430.45V64.1452H1438.06V66.1868ZM1439.21 64.1452H1446.83V66.1868H1439.21V64.1452ZM1429.3 66.1868H1421.69V64.1452H1429.3V66.1868ZM1420.54 66.1868H1412.92V64.1452H1420.54V66.1868ZM1411.77 66.1868H1404.16V64.1452H1411.77V66.1868ZM1403.01 66.1868H1395.39V64.1452H1403.01V66.1868ZM1394.24 66.1868H1390.23C1390.23 65.5063 1390.23 64.8257 1390.23 64.1452H1394.24V66.1868H1394.24ZM1394.24 67.3371V69.3787H1390.25C1390.25 68.6982 1390.24 68.0177 1390.24 67.3371H1394.24ZM1395.39 67.3371H1403.01V69.3787H1395.39V67.3371ZM1404.16 67.3371H1411.77V69.3787H1404.16V67.3371ZM1412.92 67.3371H1420.54V69.3787H1412.92V67.3371ZM1421.69 67.3371H1429.3V69.3787H1421.69V67.3371ZM1430.45 67.3371H1438.06V69.3787H1430.45V67.3371ZM1439.21 67.3371H1446.83V69.3787H1439.21V67.3371ZM1447.98 67.3371H1451.76C1451.76 68.0177 1451.75 68.6982 1451.75 69.3787H1447.98V67.3371ZM1447.98 66.1868V64.1452H1451.76C1451.76 64.8257 1451.77 65.5063 1451.76 66.1868H1447.98H1447.98ZM1421 124.187C1407.24 118.949 1398.73 110.918 1394.3 98.9723H1447.7C1443.27 110.918 1434.76 118.949 1421 124.187H1421ZM1448.1 97.8219H1393.9C1391.06 89.5144 1390.4 80.0681 1390.27 70.5291H1394.24V72.9535H1395.39V70.5291H1403.01V72.9535H1404.16V70.5291H1411.77V72.9535H1412.92V70.5291H1420.54V72.9535H1421.69V70.5291H1429.3V72.9535H1430.45V70.5291H1438.06V72.9535H1439.21V70.5291H1446.83V72.9535H1447.98V70.5291H1451.74C1451.6 80.0681 1450.94 89.5163 1448.1 97.8219Z" fill="white"/>
</svg>
