<svg width="251" height="319" viewBox="0 0 251 319" fill="none" xmlns="http://www.w3.org/2000/svg">
            <path d="M153.142 247.064L153.137 247.065C127.192 251.185 100.622 246.182 77.9531 232.908C55.2843 219.633 37.9199 198.909 28.8188 174.266C19.7178 149.624 19.4432 122.588 28.042 97.7653C36.6407 72.943 53.5807 51.8704 75.9752 38.1383C98.3698 24.4062 124.833 18.8643 150.856 22.4572C176.878 26.05 200.85 38.5551 218.686 57.8416C236.522 77.1282 247.118 102.003 248.669 128.226C250.22 154.45 242.63 180.4 227.192 201.655L227.189 201.659C218.461 213.747 207.423 223.984 194.713 231.778C182.003 239.572 167.874 244.767 153.142 247.064ZM126.674 80.7452L126.673 80.7454C113.258 82.9021 101.121 89.9649 92.6191 100.564C84.1168 111.162 79.8544 124.542 80.6588 138.105C81.4632 151.669 87.2771 164.451 96.9725 173.97C106.668 183.49 119.554 189.069 133.13 189.625C146.706 190.181 160.005 185.674 170.446 176.979C180.888 168.284 187.727 156.021 189.638 142.568C191.549 129.116 188.395 115.433 180.787 104.174C173.18 92.9159 161.662 84.8844 148.468 81.6379L148.467 81.6377C141.335 79.8867 133.925 79.5832 126.674 80.7452Z" fill="#5ECCCC" stroke="#2E378B" stroke-width="4"/>
            <path d="M69.6976 60.1019L7.77637 69.9536L47.3103 318.438L109.232 308.587L69.6976 60.1019Z" fill="#2E378B"/>
            <mask id="mask0_47_1897" style="mask-type:luminance" maskUnits="userSpaceOnUse" x="0" y="0" width="233" height="154">
            <path d="M18.55 153.59L0 36.96L232.3 0L136.26 119.04L18.55 153.59Z" fill="white"/>
            </mask>
            <g mask="url(#mask0_47_1897)">
            <path d="M190.19 33.37C216.032 47.3451 235.58 70.6385 244.859 98.513C254.138 126.388 252.451 156.75 240.142 183.425C227.832 210.1 205.824 231.085 178.593 242.111C151.363 253.138 120.955 253.378 93.5532 242.784C66.1517 232.189 43.8146 211.555 31.0848 185.078C18.355 158.601 16.1884 128.269 25.0256 100.251C33.8628 72.2333 53.0403 48.6337 78.6577 34.2518C104.275 19.8699 134.409 15.7858 162.93 22.83C172.426 25.167 181.586 28.702 190.19 33.35M162.33 89.58C157.834 86.9046 152.969 84.9065 147.89 83.65C134.94 80.4616 121.264 82.288 109.604 88.7628C97.9447 95.2376 89.1649 105.882 85.0261 118.56C80.8874 131.238 81.6959 145.012 87.2894 157.119C92.8829 169.226 102.848 178.77 115.185 183.837C127.521 188.903 141.318 189.117 153.806 184.435C166.294 179.754 176.549 170.523 182.515 158.595C188.482 146.668 189.717 132.925 185.973 120.125C182.229 107.324 173.783 96.4131 162.33 89.58Z" fill="#2E378B"/>
            </g>
    </svg>
